<svg width="24" height="22" viewBox="0 0 24 22" fill="none" xmlns="http://www.w3.org/2000/svg">
<path fill-rule="evenodd" clip-rule="evenodd" d="M21 18H23C23.5523 18 24 18.4477 24 19V21C24 21.5523 23.5523 22 23 22H1C0.447715 22 0 21.5523 0 21V19C0 18.4477 0.447715 18 1 18H3V9C3 4.02944 7.02944 0 12 0C16.9706 0 21 4.02944 21 9V18ZM20 11V18H12.5V11H20ZM20 10V9C20 4.74965 16.6854 1.27347 12.5 1.01537V10H20ZM11.5 1.01537C7.31464 1.27347 4 4.74965 4 9V10H11.5V1.01537ZM4 11H11.5V18H4V11ZM1 19H23V21H1V19Z" fill="#00A29A"/>
</svg>
