<svg width="24" height="24" viewBox="0 0 24 24" fill="none" xmlns="http://www.w3.org/2000/svg">
<path d="M22.7458 23.7411C22.6447 23.7411 22.5436 23.7025 22.4665 23.6254C22.3122 23.4711 22.3122 23.2211 22.4665 23.0669L22.6414 22.892H4.60263L4.77753 23.0668C4.93188 23.2211 4.93188 23.4711 4.77753 23.6253C4.62333 23.7796 4.37308 23.7796 4.21904 23.6253L3.37965 22.7859C3.30128 22.7075 3.26273 22.6045 3.264 22.5016C3.264 22.5001 3.264 22.4983 3.264 22.4967C3.264 22.3609 3.33257 22.2411 3.437 22.17L4.23879 21.3684C4.39298 21.214 4.64324 21.214 4.79727 21.3684C4.95163 21.5227 4.95163 21.7727 4.79727 21.9269L4.62238 22.1018H22.6613L22.4864 21.9269C22.3321 21.7725 22.3321 21.5226 22.4864 21.3684C22.6406 21.214 22.8909 21.214 23.0449 21.3684L23.8843 22.2078C23.9628 22.2861 24.0012 22.3892 24 22.492C24 22.4937 24 22.4953 24 22.4969C24 22.6328 23.9314 22.7525 23.827 22.8236L23.0252 23.6253C22.9481 23.7025 22.847 23.7411 22.7458 23.7411ZM1.24412 20.996C1.10825 20.996 0.988335 20.9273 0.917399 20.8229L0.115766 20.0212C-0.0385886 19.8669 -0.0385886 19.6169 0.115766 19.4627C0.269962 19.3084 0.520216 19.3084 0.674255 19.4627L0.849148 19.6376V1.59853L0.674255 1.77342C0.520058 1.92777 0.269804 1.92777 0.115766 1.77342C-0.0385886 1.61907 -0.0385886 1.36913 0.115766 1.21493L0.955158 0.37554C1.03352 0.297178 1.1359 0.257207 1.23922 0.259893C1.3792 0.26321 1.49911 0.327196 1.571 0.433048L2.37263 1.23468C2.52698 1.38903 2.52698 1.63897 2.37263 1.79317C2.21843 1.94752 1.96818 1.94752 1.81414 1.79317L1.63925 1.61828V19.6574L1.81414 19.4825C1.96834 19.3281 2.21859 19.3281 2.37263 19.4825C2.52698 19.6368 2.52698 19.8868 2.37263 20.041L1.53324 20.8804C1.45487 20.9587 1.35092 20.9982 1.24917 20.996C1.24744 20.996 1.24586 20.996 1.24412 20.996ZM23.605 19.8786H4.51795C4.29977 19.8786 4.12298 19.7018 4.12298 19.4836V0.655021C4.12298 0.436839 4.29977 0.260051 4.51795 0.260051H15.9238C16.1419 0.260051 16.3187 0.436839 16.3187 0.655021V8.32109H23.6048C23.823 8.32109 23.9998 8.49788 23.9998 8.71606V19.4834C24 19.7016 23.8232 19.8786 23.605 19.8786ZM16.3018 19.0886H23.21V9.11103H16.3018V19.0886ZM8.73545 19.0886H15.512V13.7979H8.73545V19.0886ZM4.91292 19.0886H7.94535V13.7979H4.91292V19.0886ZM8.34048 13.008H15.512V8.71606C15.512 8.67609 15.518 8.63754 15.5289 8.60104V4.4766H4.91292V13.008H8.34048ZM10.6075 3.68666H15.5289V1.04999H10.6075V3.68666ZM4.91292 3.68666H9.81735V1.04999H4.91292V3.68666Z" fill="#00A29A"/>
</svg>
