<svg width="24" height="18" viewBox="0 0 24 18" fill="none" xmlns="http://www.w3.org/2000/svg">
<path d="M22.7614 7.85914V1.94368C22.7614 1.13311 22.1019 0.473633 21.2914 0.473633H2.70863C1.89806 0.473633 1.23858 1.13311 1.23858 1.94368V7.8592C0.538307 7.96573 0 8.57182 0 9.30141V12.9628C0 13.2185 0.207274 13.4258 0.46294 13.4258H0.958904V15.7096C0.958904 15.9653 1.16618 16.1726 1.42184 16.1726H2.25754V17.0639C2.25754 17.3196 2.46482 17.5269 2.72048 17.5269C2.97615 17.5269 3.18342 17.3196 3.18342 17.0639V16.1726H20.8166V17.0639C20.8166 17.3196 21.0238 17.5269 21.2796 17.5269C21.5353 17.5269 21.7425 17.3196 21.7425 17.0639V16.1726H22.5782C22.8339 16.1726 23.0412 15.9653 23.0412 15.7096V13.4258H23.5371C23.7928 13.4258 24 13.2185 24 12.9628V9.30141C24 8.57182 23.4617 7.96567 22.7614 7.85914ZM2.1644 1.94368C2.1644 1.64364 2.40852 1.39951 2.70857 1.39951H21.2913C21.5914 1.39951 21.8355 1.64364 21.8355 1.94368V7.84253H20.2099C20.5334 7.49434 20.8624 7.12818 21.2031 6.73641C21.3546 6.56216 21.3546 6.30292 21.203 6.12873C19.8637 4.58942 18.7424 3.46805 17.2035 2.12917C17.0293 1.97757 16.77 1.97757 16.5957 2.12917C15.0568 3.46812 13.9355 4.58948 12.5962 6.12873C12.4447 6.30292 12.4446 6.56216 12.5962 6.73641C12.937 7.12824 13.2659 7.4944 13.5893 7.84253H10.4103C10.7337 7.49434 11.0628 7.12818 11.4035 6.73641C11.5551 6.56216 11.5551 6.30292 11.4035 6.12873C10.0643 4.58967 8.94296 3.4683 7.4039 2.12917C7.22971 1.97757 6.9704 1.97757 6.79615 2.12917C5.25709 3.4683 4.13572 4.58967 2.79659 6.12873C2.64499 6.30292 2.64499 6.56216 2.79653 6.73641C3.13732 7.12818 3.46631 7.49434 3.78975 7.84253H2.1644V1.94368ZM14.8667 7.84253C14.4408 7.40527 14.0105 6.94066 13.5613 6.4326C14.6679 5.18038 15.6478 4.20055 16.8997 3.09412C18.1516 4.20049 19.1314 5.18038 20.2381 6.4326C19.789 6.94066 19.3586 7.40527 18.9327 7.84253H14.8667ZM5.06722 7.84253C4.64125 7.40521 4.21091 6.94066 3.76167 6.4326C4.86816 5.18062 5.84817 4.20061 7.10015 3.09412C8.35212 4.20061 9.33214 5.18062 10.4386 6.4326C9.98945 6.94066 9.5591 7.40521 9.13307 7.84253H5.06722ZM22.1153 15.2467H1.88478V13.4258H22.1153V15.2467ZM23.0741 12.4999H0.925881V9.30141C0.925881 9.00754 1.165 8.76841 1.45894 8.76841H22.5411C22.835 8.76841 23.0741 9.00754 23.0741 9.30141V12.4999Z" fill="#00A29A"/>
</svg>
